Coordinates
version=1
nRows=21
nColumns=27
inDegrees=yes

Units are S.I. units (second, meters, Newtons, ...)
If the header above contains a line with 'inDegrees', this indicates whether rotational values are in degrees (yes) or radians (no).

endheader
time	pelvis_rotation	pelvis_tilt	pelvis_list	pelvis_tx	pelvis_ty	pelvis_tz	hip_flexion_r	hip_adduction_r	hip_rotation_r	knee_angle_r	knee_rotation_r	knee_adduction_r	knee_angle_r_beta	ankle_angle_r	subtalar_angle_r	mtp_angle_r	hip_flexion_l	hip_adduction_l	hip_rotation_l	knee_angle_l	knee_rotation_l	knee_adduction_l	knee_angle_l_beta	ankle_angle_l	subtalar_angle_l	mtp_angle_l
     10.90000000	     -0.57219198	    -24.63654499	     -1.16911319	     -0.02952900	      0.90855796	     -1.19572493	     39.72587108	     -5.90731092	    -23.62148876	     20.48179695	      2.95987282	      7.76461505	      0.35747479	      2.97874760	      4.21886450	      0.00000000	     40.10708663	     -9.75040941	    -15.97657274	     19.35130157	      2.46148712	     -2.13257732	      0.33774393	      1.76671117	      9.11028475	      0.00000000
     10.90500000	     -0.12888250	    -24.82577490	     -1.10359506	     -0.03002953	      0.90836207	     -1.19595902	     39.95763469	     -6.19731721	    -24.18581442	     20.71022387	      3.00234637	      7.90433579	      0.36146160	      3.13191882	      4.33199032	      0.00000000	     40.48576051	     -9.50644212	    -15.36547516	     19.42947316	      2.43742405	     -2.05968995	      0.33910828	      1.77986055	      8.89421367	      0.00000000
     10.91000000	      0.28037012	    -25.42813197	     -1.32528775	     -0.03124038	      0.90807454	     -1.19575583	     40.61801914	     -6.16124984	    -24.66431708	     20.85301185	      3.01616788	      7.94049302	      0.36395372	      3.10513856	      4.15620598	      0.00000000	     41.55697458	     -9.57992626	    -14.46379500	     19.88524927	      2.41338626	     -1.78069871	      0.34706307	      1.88220928	      8.96187710	      0.00000000
     10.91500000	      0.14341817	    -25.80654476	     -1.24543240	     -0.03238213	      0.90773524	     -1.19570262	     41.31028404	     -6.20763848	    -24.36391985	     21.19700793	      2.94047597	      7.89943679	      0.36995758	      3.16384303	      4.09890298	      0.00000000	     42.09922615	     -9.58090539	    -14.50966648	     20.10616411	      2.42691057	     -1.71025361	      0.35091876	      1.91279121	      8.94198462	      0.00000000
     10.92000000	     -1.29366044	    -28.23771100	     -0.65056957	     -0.03864538	      0.90613018	     -1.19572518	     45.56689758	     -6.24492412	    -21.09323914	     22.94610633	      2.55729650	      6.39985357	      0.40048511	      3.50403879	      4.45935313	      0.00000000	     45.14305905	     -9.63724580	    -15.36417399	     21.16059191	      2.42819379	     -0.85266358	      0.36932200	      2.15046432	      9.22816134	      0.00000000
     10.92500000	     -0.10906766	    -26.51670829	     -0.83796306	     -0.03465819	      0.90703546	     -1.19593210	     42.74133101	     -6.56119869	    -23.64844568	     22.04750805	      2.80715147	      7.85170644	      0.38480161	      3.36425661	      4.04322420	      0.00000000	     43.01418257	     -9.31544566	    -14.71011905	     20.36094865	      2.40689371	     -1.55201933	      0.35536559	      1.87190052	      8.80917560	      0.00000000
     10.93000000	     -1.08949961	    -29.03390825	     -0.43556864	     -0.04082210	      0.90538050	     -1.19588550	     46.90987440	     -6.57239338	    -21.06525865	     23.70100522	      2.46819513	      6.43751094	      0.41366058	      3.65005587	      4.40587637	      0.00000000	     46.32629314	     -9.40807069	    -14.86626636	     21.52325789	      2.45118345	     -0.61205210	      0.37565172	      2.21991536	      9.07380006	      0.00000000
     10.93500000	     -1.11159498	    -29.30983378	     -0.07802719	     -0.04191759	      0.90502918	     -1.19617874	     47.53079383	     -6.89484674	    -20.63653663	     24.12308001	      2.48410106	      6.42071414	      0.42102717	      3.80183391	      4.37835579	      0.00000000	     46.67167390	     -9.09452884	    -14.99066465	     21.57553377	      2.36755096	     -0.49946161	      0.37656410	      2.05627288	      9.02804550	      0.00000000
     10.94000000	     -1.77155585	    -29.64984268	      0.44044617	     -0.04326701	      0.90448024	     -1.19641571	     48.54719168	     -7.07398162	    -19.32307233	     24.80453218	      2.38637851	      6.18117256	      0.43292076	      3.93522553	      4.45391908	      0.00000000	     46.88751943	     -8.96064980	    -16.11028119	     21.60444842	      2.38842569	     -0.65450523	      0.37706876	      2.03595814	      8.93228679	      0.00000000
     10.94500000	     -2.01850418	    -30.00291258	      0.86433290	     -0.04453135	      0.90400081	     -1.19664538	     49.40313932	     -7.32556644	    -18.59206493	     25.35928336	      2.33585296	      6.12878360	      0.44260299	      4.07588300	      4.42929736	      0.00000000	     47.24070443	     -8.73304705	    -16.56731473	     21.65833748	      2.39710875	     -0.63607685	      0.37800930	      1.99108582	      8.78912421	      0.00000000
     10.95000000	     -0.42925622	    -28.40588065	      0.13766130	     -0.04061257	      0.90509380	     -1.19642898	     46.39872577	     -7.42394445	    -22.05055855	     24.15448133	      2.52457779	      7.68729530	      0.42157523	      3.82820901	      3.87538760	      0.00000000	     45.56358794	     -8.67826598	    -14.96319402	     21.11604031	      2.40068442	     -1.17137295	      0.36854443	      1.80549270	      8.50084451	      0.00000000
     10.95500000	     -1.11685141	    -32.68076400	      0.93694138	     -0.05001842	      0.90243800	     -1.19665572	     53.07104872	     -7.72410595	    -18.81834876	     26.67246450	      2.18125854	      5.79502650	      0.46552233	      4.26210666	      4.34837710	      0.00000000	     51.24991915	     -8.44380653	    -14.49748113	     22.90523748	      2.35730516	      0.37574593	      0.39977181	      2.04909086	      8.80172825	      0.00000000
     10.96000000	     -0.76312058	    -29.20389746	      1.03929277	     -0.04332397	      0.90417082	     -1.19708418	     48.22107542	     -8.09843598	    -20.70453677	     25.32997747	      2.41701727	      7.49400198	      0.44209151	      4.13769073	      3.93495019	      0.00000000	     46.41351270	     -8.04821140	    -15.72268387	     21.17257375	      2.32494666	     -1.12634522	      0.36953112	      1.64459050	      8.22345781	      0.00000000
     10.96500000	     -0.54931890	    -29.54804869	      0.82422157	     -0.04427406	      0.90384381	     -1.19675641	     48.63389858	     -7.97880796	    -20.97328807	     25.42684435	      2.37960552	      7.53968021	      0.44378215	      4.09371359	      3.76467421	      0.00000000	     47.09679662	     -8.22722871	    -15.27219799	     21.53996191	      2.35675655	     -1.05387342	      0.37594326	      1.73546439	      8.32127712	      0.00000000
     10.97000000	     -1.15250347	    -29.85679056	      1.31900030	     -0.04566387	      0.90331772	     -1.19689589	     49.58363907	     -8.10601139	    -19.69099095	     26.02550661	      2.27617661	      7.34318892	      0.45423078	      4.19270259	      3.73571022	      0.00000000	     47.29982130	     -8.10990741	    -16.32048853	     21.56333415	      2.38797587	     -1.23398104	      0.37635118	      1.69250622	      8.19043974	      0.00000000
     10.97500000	     -0.86900758	    -30.17065863	      1.46142792	     -0.04669162	      0.90295107	     -1.19705972	     50.10043635	     -8.36402484	    -19.80165065	     26.33878620	      2.29172637	      7.37321550	      0.45969854	      4.28550937	      3.71223217	      0.00000000	     47.83933162	     -7.89605301	    -16.03438480	     21.72212124	      2.32965744	     -1.15951097	      0.37912254	      1.65884543	      8.15511402	      0.00000000
     10.98000000	     -0.94955585	    -33.96888344	      2.06232557	     -0.05478794	      0.90049308	     -1.19725685	     55.75622801	     -8.64396244	    -17.36055104	     28.30933901	      2.25156859	      5.69705146	      0.49409117	      4.59307535	      4.00654530	      0.00000000	     53.07196620	     -7.67923312	    -15.10824956	     23.42872980	      2.25338283	      0.19617619	      0.40890847	      1.93728666	      8.37367991	      0.00000000
     10.98500000	     -1.42119689	    -31.04614987	      1.93684928	     -0.04957955	      0.90189381	     -1.19703442	     51.88098661	     -8.43826124	    -18.25347000	     27.20794770	      2.21902257	      7.03821194	      0.47486827	      4.35850132	      3.50519300	      0.00000000	     48.95134026	     -7.87134412	    -16.94693315	     22.16486925	      2.31918139	     -1.22190563	      0.38684995	      1.72665567	      8.18337726	      0.00000000
     10.99000000	     -1.00706937	    -31.24168482	      2.17040387	     -0.05037997	      0.90155756	     -1.19734600	     52.26686422	     -8.83883140	    -18.55835258	     27.55713588	      2.21290486	      7.15016498	      0.48096275	      4.50234860	      3.58657195	      0.00000000	     49.33019847	     -7.51111904	    -16.61746254	     22.21910337	      2.24773281	     -1.22643211	      0.38779651	      1.62328702	      7.98603652	      0.00000000
     10.99500000	     -0.94351393	    -31.68096450	      2.36844750	     -0.05174103	      0.90105438	     -1.19746968	     53.04732208	     -9.01714164	    -18.26697725	     27.95860543	      2.22353494	      7.07552475	      0.48796972	      4.56999110	      3.51738610	      0.00000000	     49.98768350	     -7.37681946	    -16.62313627	     22.44502936	      2.20953815	     -1.19188599	      0.39173966	      1.61530666	      7.95110805	      0.00000000
     11.00000000	     -0.89283540	    -33.65825950	      2.52546411	     -0.05641800	      0.89952666	     -1.19724594	     55.98328472	     -9.01760961	    -17.01082717	     28.94890943	      2.22357543	      5.93518562	      0.50525378	      4.69203001	      3.79489055	      0.00000000	     52.87936639	     -7.43591497	    -15.89083002	     23.52685155	      2.20571751	     -0.38512126	      0.41062102	      1.82200271	      8.19255036	      0.00000000
